
<svg version="1.0" xmlns="http://www.w3.org/2000/svg"
 width="503.000000pt" height="500.000000pt" viewBox="0 0 503.000000 500.000000"
 preserveAspectRatio="xMidYMid meet">

<g transform="translate(0.000000,500.000000) scale(0.100000,-0.100000)"
fill="#000000" stroke="none">
<path d="M2655 4749 c-152 -20 -144 -27 35 -29 96 -1 182 -3 190 -4 8 -2 62
-8 120 -15 58 -7 148 -24 200 -38 52 -14 120 -32 150 -40 88 -23 350 -142 425
-193 37 -25 116 -69 105 -58 -17 17 -121 98 -125 98 -4 0 -27 16 -52 35 -25
19 -50 35 -54 35 -5 0 -37 17 -71 38 -35 21 -74 41 -88 44 -14 3 -56 19 -95
36 -79 34 -253 78 -365 92 -89 11 -291 11 -375 -1z"/>
<path d="M1927 4196 c-81 -24 -175 -57 -208 -75 -32 -17 -65 -31 -72 -31 -6 0
-34 -16 -61 -35 -27 -19 -54 -35 -59 -35 -9 0 -133 -100 -182 -147 -71 -69
-157 -188 -205 -282 -45 -91 -120 -329 -99 -315 5 3 9 10 9 15 0 34 119 245
200 354 61 83 176 202 255 265 31 25 71 56 88 70 87 70 265 159 419 211 68 23
125 43 127 45 18 16 -90 -4 -212 -40z"/>
<path d="M3042 3158 c65 -203 42 -426 -68 -641 -20 -40 -40 -74 -44 -77 -4 -3
-13 -16 -19 -30 -24 -47 41 29 98 115 80 120 114 202 130 310 17 112 -4 206
-66 309 -33 54 -46 59 -31 14z"/>
<path d="M250 2920 c-19 -97 -20 -439 -2 -525 71 -325 225 -566 504 -793 42
-34 79 -62 83 -62 3 0 21 -11 38 -24 31 -23 99 -62 182 -104 190 -96 259 -120
165 -57 -29 19 -55 35 -59 35 -7 0 -64 40 -160 112 -58 44 -220 186 -247 218
-12 14 -35 39 -51 55 -145 152 -290 397 -357 605 -50 153 -68 264 -75 450 l-6
165 -15 -75z"/>
<path d="M4528 2789 c-4 -65 -11 -96 -32 -137 -66 -130 -185 -229 -378 -317
-55 -25 -107 -45 -115 -45 -9 0 -58 -14 -110 -30 -52 -17 -128 -35 -168 -41
-128 -17 -268 -64 -353 -116 -29 -18 -55 -33 -58 -33 -14 0 -234 -192 -354
-307 -41 -40 -78 -73 -83 -73 -5 0 -28 -16 -51 -35 -24 -19 -46 -35 -49 -35
-3 0 -32 -18 -63 -40 -32 -22 -63 -40 -70 -40 -6 0 -41 -14 -76 -30 -81 -38
-304 -80 -432 -81 l-91 -1 50 -15 c64 -18 298 -21 380 -4 100 21 226 61 303
97 40 19 77 34 83 34 6 0 38 18 71 40 33 22 62 40 64 40 2 0 52 33 112 73 116
77 202 123 352 185 97 41 332 112 368 112 11 0 76 16 144 36 67 20 140 40 160
45 74 18 205 83 268 134 97 79 150 151 182 249 37 114 21 295 -36 395 -12 22
-14 17 -18 -60z"/>
<path d="M4178 1632 c-5 -13 -250 -225 -303 -262 -92 -63 -168 -109 -310 -183
-53 -28 -209 -90 -245 -98 -19 -4 -75 -19 -125 -34 -237 -68 -685 -72 -993 -9
-68 14 -126 23 -128 21 -7 -7 90 -42 196 -70 203 -55 238 -59 515 -59 277 0
320 5 480 56 44 14 87 26 95 26 23 0 233 95 277 124 21 14 42 26 47 26 5 0 31
16 57 35 27 19 51 35 54 35 13 0 169 133 245 210 85 84 168 190 151 190 -5 0
-11 -4 -13 -8z"/>
<path d="M1280 1316 c0 -2 7 -7 16 -10 8 -3 12 -2 9 4 -6 10 -25 14 -25 6z"/>
<path d="M1310 753 c-52 -8 -110 -26 -110 -34 0 -5 -7 -9 -15 -9 -8 0 -15 -5
-15 -10 0 -6 23 2 50 16 34 18 61 25 84 22 19 -2 32 0 30 4 -13 20 137 -1 192
-27 33 -15 104 -88 104 -105 0 -6 -32 -10 -77 -10 -61 0 -81 4 -97 19 -37 33
-81 42 -132 26 -63 -19 -74 -31 -74 -79 1 -58 33 -81 119 -81 61 0 64 1 97 39
46 53 36 58 -15 7 -51 -51 -95 -55 -141 -14 -38 34 -38 58 1 94 39 37 83 38
133 4 32 -22 48 -25 119 -25 45 0 87 4 93 8 21 14 -13 70 -57 94 -23 13 -51
28 -63 35 -40 22 -161 37 -226 26z"/>
<path d="M400 741 c-14 -4 26 -6 88 -4 l112 3 0 -45 0 -45 -47 0 c-61 0 -93
-9 -93 -25 0 -18 23 -25 81 -25 l49 0 0 -35 c0 -28 4 -35 20 -35 16 0 20 7 20
34 0 40 -11 46 -81 46 -48 0 -65 12 -33 24 9 3 40 6 70 6 l54 0 0 49 c0 42 -3
49 -22 55 -31 8 -187 6 -218 -3z"/>
<path d="M758 743 l72 -4 0 -174 c0 -149 2 -175 15 -175 23 0 22 345 -1 354
-9 3 -48 5 -87 4 l-72 -2 73 -3z"/>
<path d="M1700 570 c0 -113 4 -180 10 -180 6 0 10 65 10 175 l0 175 60 0 60 0
0 -56 c0 -49 2 -55 18 -49 44 18 89 17 129 -3 22 -12 43 -28 47 -37 3 -9 6
-59 6 -111 0 -77 3 -94 15 -94 12 0 15 17 15 98 0 86 -3 100 -23 123 -26 31
-74 49 -128 49 -39 0 -39 0 -39 39 0 47 -8 51 -106 51 l-74 0 0 -180z"/>
<path d="M4028 733 c6 -2 18 -2 25 0 6 3 1 5 -13 5 -14 0 -19 -2 -12 -5z"/>
<path d="M4092 733 c-12 -2 -20 -9 -17 -14 8 -12 45 -12 45 1 0 6 9 10 20 10
11 0 20 -6 20 -14 0 -25 -28 -39 -68 -33 -20 3 -57 2 -82 -3 -37 -6 -29 -7 49
-8 99 -1 141 11 141 39 0 27 -40 35 -108 22z"/>
<path d="M328 700 c-27 -29 -28 -35 -28 -133 0 -100 1 -104 28 -129 30 -30 73
-49 105 -47 12 1 3 5 -20 11 -23 5 -56 22 -72 37 -30 29 -31 31 -31 126 0 94
1 97 30 127 17 16 30 31 30 34 0 11 -18 1 -42 -26z"/>
<path d="M3985 719 c-11 -17 1 -21 15 -4 8 9 8 15 2 15 -6 0 -14 -5 -17 -11z"/>
<path d="M1116 657 c-15 -19 -26 -40 -26 -48 0 -9 5 -6 12 6 6 11 22 32 36 48
14 15 21 27 14 27 -6 0 -22 -15 -36 -33z"/>
<path d="M2193 635 c-28 -13 -55 -30 -59 -36 -4 -7 14 0 41 15 92 51 227 42
292 -18 26 -24 28 -33 31 -116 3 -69 7 -90 18 -90 11 0 14 16 14 68 0 118 -7
137 -54 160 -102 49 -202 55 -283 17z"/>
<path d="M2700 653 c-60 -23 -102 -44 -97 -49 3 -3 24 4 48 16 96 50 238 28
287 -43 20 -30 22 -45 22 -155 l0 -122 -60 0 -60 0 0 110 c0 97 -2 112 -20
130 -23 23 -57 26 -95 8 -45 -20 -27 -57 34 -65 41 -6 41 -6 41 -49 l0 -44
-45 0 c-57 0 -129 33 -161 75 -28 37 -30 55 -9 95 13 25 13 29 1 24 -15 -6
-26 -35 -26 -68 0 -65 106 -136 204 -136 l56 0 0 -45 0 -45 90 0 90 0 0 131
c0 72 -4 139 -10 149 -30 56 -219 110 -290 83z m104 -109 c10 -4 16 -18 15
-38 0 -17 -3 -26 -5 -20 -2 6 -18 8 -34 6 -26 -4 -30 -1 -30 20 0 37 16 46 54
32z"/>
<path d="M3580 653 c-66 -23 -99 -47 -121 -87 -19 -38 -21 -47 -10 -72 30 -75
100 -114 202 -114 56 0 146 18 154 30 7 11 -74 72 -86 65 -4 -3 -10 -1 -14 4
-3 7 -15 7 -29 1 -24 -9 -36 -5 -36 12 0 4 54 8 120 8 l120 0 0 26 c0 37 -15
59 -57 86 -64 39 -188 60 -243 41z m156 -19 c27 -9 55 -21 62 -27 13 -10 42
-71 42 -88 0 -5 -45 -9 -100 -9 -82 0 -100 3 -100 15 0 10 11 15 35 15 37 0
43 8 23 28 -17 17 -33 15 -18 -3 11 -13 8 -15 -16 -14 -16 0 -23 3 -16 6 20 8
14 23 -9 23 -27 0 -48 -27 -49 -61 0 -36 24 -54 74 -52 32 1 48 -4 74 -26 l33
-28 -46 -13 c-55 -15 -150 -9 -194 14 -70 37 -90 128 -40 182 46 49 158 66
245 38z"/>
<path d="M4001 649 c-13 -5 -41 -23 -62 -40 l-39 -31 2 -96 2 -97 5 93 c6 92
7 94 42 127 47 43 124 55 194 32 78 -27 95 -56 95 -166 0 -74 2 -81 20 -81 19
0 20 7 20 94 l0 95 -33 26 c-62 47 -184 69 -246 44z"/>
<path d="M4415 643 c-52 -19 -105 -60 -104 -81 1 -13 2 -14 6 -2 8 27 63 62
121 77 190 50 346 -101 212 -205 -83 -63 -225 -55 -302 19 -21 20 -38 30 -38
24 0 -18 63 -63 111 -80 55 -20 147 -19 206 1 54 18 123 82 123 113 0 105
-197 184 -335 134z"/>
<path d="M3030 575 c0 -76 19 -145 40 -145 7 0 5 9 -4 22 -11 16 -16 46 -16
105 l0 83 60 0 59 0 3 -76 c3 -82 17 -105 54 -89 13 5 15 9 7 12 -9 3 -13 28
-13 78 0 85 1 85 -117 85 l-73 0 0 -75z"/>
<path d="M3308 643 l72 -4 0 -78 c0 -69 -3 -82 -27 -114 -16 -20 -41 -41 -57
-47 -42 -15 -131 -12 -173 5 -20 8 -38 13 -41 10 -12 -11 59 -29 133 -32 58
-3 90 0 115 11 73 32 90 65 90 170 0 86 -1 87 -115 84 l-70 -2 73 -3z"/>
<path d="M2104 544 c-6 -33 10 -93 22 -82 2 3 -1 17 -7 32 -9 20 -9 32 -1 51
14 31 15 35 2 35 -5 0 -12 -16 -16 -36z"/>
<path d="M1588 553 c23 -2 42 -9 42 -15 0 -25 -68 -99 -110 -120 -66 -33 -219
-38 -284 -10 -64 29 -117 71 -132 107 -10 22 -13 25 -13 10 0 -25 13 -42 64
-81 66 -50 114 -64 224 -64 112 0 163 14 222 61 34 27 69 83 69 110 0 5 -28 8
-62 7 -50 -1 -54 -2 -20 -5z"/>
<path d="M1852 548 c-7 -7 -12 -42 -12 -85 0 -66 2 -73 20 -73 18 0 20 7 22
78 l2 77 6 -80 6 -80 2 72 c1 39 -1 78 -4 87 -7 19 -25 21 -42 4z"/>
<path d="M2271 547 c-14 -6 -26 -17 -28 -23 -7 -20 27 -44 63 -44 34 0 34 0
34 -44 l0 -45 -47 -4 c-43 -3 -42 -4 15 -5 l62 -2 0 80 c0 77 -1 81 -26 90
-33 13 -44 12 -73 -3z m70 -7 c10 -6 19 -21 19 -33 0 -20 -4 -23 -35 -19 -29
3 -35 8 -35 27 0 20 8 29 28 34 2 1 12 -4 23 -9z"/>
<path d="M4047 554 c-4 -4 -7 -43 -7 -86 0 -71 2 -78 20 -78 18 0 20 7 20 74
0 103 18 108 23 6 l3 -80 0 82 c-1 81 -2 83 -26 86 -14 2 -29 0 -33 -4z"/>
<path d="M4462 548 c-29 -29 -5 -68 41 -68 39 0 67 17 67 40 0 35 -80 56 -108
28z m83 -12 c16 -12 17 -16 6 -30 -7 -9 -24 -16 -36 -16 -30 0 -42 30 -19 47
22 16 26 16 49 -1z"/>
<path d="M4301 524 c0 -11 3 -14 6 -6 3 7 2 16 -1 19 -3 4 -6 -2 -5 -13z"/>
<path d="M450 510 c0 -13 7 -20 20 -20 11 0 20 6 20 14 0 8 6 17 13 19 6 3 -3
6 -20 6 -27 1 -33 -3 -33 -19z"/>
<path d="M600 440 c0 -43 3 -50 20 -50 17 0 20 7 20 50 0 43 -3 50 -20 50 -17
0 -20 -7 -20 -50z"/>
<path d="M2135 440 c8 -13 84 -52 94 -48 4 2 -17 16 -47 31 -30 15 -51 23 -47
17z"/>
</g>
</svg>
